<svg id="Layer_1" data-name="Layer 1" xmlns="http://www.w3.org/2000/svg" viewBox="0 0 4.87 14"><defs><style>.cls-1{fill:#fff;}</style></defs><title>info</title><path class="cls-1" d="M4.34,13.72a2.57,2.57,0,0,0,1.36-.37c.19-.17.28-.65.28-1.44V7.13a3,3,0,0,0-.09-.9.6.6,0,0,0-.63-.41.78.78,0,0,0-.22,0c-.07,0-.27.06-.61.16V5.69l.44-.14c1.17-.39,2-.67,2.44-.87a1.38,1.38,0,0,1,.36-.12.39.39,0,0,1,0,.15v7.2A2.39,2.39,0,0,0,8,13.35a2.05,2.05,0,0,0,1.25.37V14H4.34ZM5.94.31A1,1,0,0,1,6.68,0a1,1,0,0,1,.74.3,1.05,1.05,0,0,1,.3.75,1,1,0,0,1-.3.73,1,1,0,0,1-.74.31,1,1,0,0,1-.74-.31,1,1,0,0,1-.3-.73A1,1,0,0,1,5.94.31Z" transform="translate(-4.34 0)"/></svg>