<svg xmlns="http://www.w3.org/2000/svg" viewBox="0 0 56 56">
    <defs>
        <style>.cls-1{fill:@font-color-primary}</style>
    </defs>
    <g id="Layer_4" data-name="Layer 4">
        <path class="cls-1" d="M25,5.24.48,47.22a3.52,3.52,0,0,0,3,5.28h49a3.52,3.52,0,0,0,3-5.28L31,5.24A3.51,3.51,0,0,0,25,5.24Zm3,8.18a3.21,3.21,0,0,1,3.28,3.28c-.31,5-2.5,19.76-2.5,19.76a.79.79,0,0,1-1.56,0S25,21.67,24.72,16.7A3.21,3.21,0,0,1,28,13.42Zm0,33.52a3.28,3.28,0,1,1,3.28-3.28A3.28,3.28,0,0,1,28,46.94Z" />
    </g>
</svg>
