<svg xmlns="http://www.w3.org/2000/svg" viewBox="0 0 56 56">
    <defs>
        <style>.cls-1{fill:@font-color-primary}</style>
    </defs>
    <g id="Layer_3" data-name="Layer 3">
        <path class="cls-1" d="M28,0A28,28,0,1,0,56,28,28,28,0,0,0,28,0Zm6.39,39.35C33.87,41,30,49.08,23.23,49.09c-4.5,0-3.66-5.2-2.93-7.83,1.16-4.2,5.2-15.73,5.38-16.54s.42-2.09-1.21-.94a16.1,16.1,0,0,0-3.66,4.35c-.42.76-1.75,1.34-1.39-.87s5.11-9.19,11-8.5,2.87,8,1.39,12.34-3.21,9.4-3.42,10.64.24,2.63,1.88.66,2-2.81,2.81-3.87S34.9,37.72,34.39,39.35ZM32,16.29a4.69,4.69,0,1,1,4.69-4.69A4.69,4.69,0,0,1,32,16.29Z" />
    </g>
</svg>