<svg id="Layer_1" data-name="Layer 1" xmlns="http://www.w3.org/2000/svg" viewBox="0 0 690.1 512.72">
    <defs>
        <style>.cls-1{fill:none;stroke:@font-color-primary;stroke-linecap:round;stroke-miterlimit:10;stroke-width:14px;}</style>
        <style>.cls-2{fill:@font-color-primary}</style>
    </defs>
    <g id="Horizon_V1" data-name="Horizon V1">
        <path class="cls-2" d="M183.09,249.5a7.94,7.94,0,0,1-15.88,0V214.1H143v35.4a7.94,7.94,0,0,1-15.88,0V165.39a8,8,0,0,1,8-7.87,8.14,8.14,0,0,1,7.86,8v32.83h24.21v-33a7.94,7.94,0,0,1,15.88,0Z" />
        <path class="cls-2" d="M263.27,233a24.35,24.35,0,0,1-24.36,24.36h-7.26A24.35,24.35,0,0,1,207.29,233V181.88a24.35,24.35,0,0,1,24.36-24.36h7.26a24.35,24.35,0,0,1,24.36,24.36Zm-15.89-51.13a8.1,8.1,0,0,0-8.47-8.47h-7.26a8.1,8.1,0,0,0-8.47,8.47V233a8.1,8.1,0,0,0,8.47,8.47h7.26a8.1,8.1,0,0,0,8.47-8.47Z" />
        <path class="cls-2" d="M342.23,245.26a8.64,8.64,0,0,1,1.21,4.24,8,8,0,0,1-15,3.78l-21.93-42.21h-3.18V249.5a7.94,7.94,0,0,1-8,7.87,7.81,7.81,0,0,1-7.86-7.87v-84a7.94,7.94,0,0,1,7.86-8h23.75a24.34,24.34,0,0,1,24.36,24.36v4.84a24.2,24.2,0,0,1-19.82,23.9Zm-14.68-63.38a8.1,8.1,0,0,0-8.47-8.47H303.35v21.78h15.73a8.1,8.1,0,0,0,8.47-8.47Z" />
        <path class="cls-2" d="M415.75,241.48a7.95,7.95,0,0,1,0,15.89H375.51a7.95,7.95,0,0,1,0-15.89h12.1V173.41h-12.1a7.95,7.95,0,0,1,0-15.89h40.24a7.95,7.95,0,0,1,0,15.89H403.49v68.07Z" />
        <path class="cls-2" d="M495.92,257.37H455.83a8,8,0,0,1-8-7.87,8.89,8.89,0,0,1,.91-3.93l32.53-72.16H458.1a7.95,7.95,0,1,1,0-15.89h35.55a7.94,7.94,0,0,1,7.87,8,8.26,8.26,0,0,1-.91,3.78l-32.52,72.16h27.83a7.94,7.94,0,0,1,7.87,8A7.81,7.81,0,0,1,495.92,257.37Z" />
        <path class="cls-2" d="M584,233a24.34,24.34,0,0,1-24.35,24.36h-7.27A24.34,24.34,0,0,1,528,233V181.88a24.34,24.34,0,0,1,24.35-24.36h7.27A24.34,24.34,0,0,1,584,181.88Zm-15.88-51.13a8.1,8.1,0,0,0-8.47-8.47h-7.27a8.1,8.1,0,0,0-8.47,8.47V233a8.1,8.1,0,0,0,8.47,8.47h7.27a8.1,8.1,0,0,0,8.47-8.47Z" />
        <path class="cls-2" d="M664.13,249.35a7.88,7.88,0,0,1-15.27,2.87l-24.81-52.94v50.07a7.95,7.95,0,1,1-15.89,0V165.54a7.94,7.94,0,0,1,7.87-8,8,8,0,0,1,7.41,5.15l24.81,51.73V165.54a7.94,7.94,0,0,1,7.87-8,8.07,8.07,0,0,1,8,8Z" />
        <path class="cls-1" d="M400.11,278.52H680.88m-664.31-176M36.9,84.19,55.49,72.36M33,56l9-6.19m43.92,3.37L100.54,47M79.7,27.87l4.5-2.81m62.51,6.19-12.39,2.82M136,9.85m64.76,13.52,22.53-.56m23.08,290.57c46.18,28.72,146.41,52.93,146.41,52.93M235.68,335.9c70.39,39.42,145.85,54.62,145.85,54.62M399,340.41s-70.39-11.27-158.8-58C200.56,261.45,163,305.49,189,332.52,224.51,369.64,368,417,368,417m-72.7-138.33c52.37,20.54,104.79,34.72,104.79,34.72M166.4,280.72c-17.45,23.65-16.89,48.42,1.15,66.44,48.27,48.22,181.88,92.35,181.88,92.35M351.67,272a185.63,185.63,0,0,0,48.44,6.5m-264.1,0c-14.64,30.16-11.72,57.63,9.57,83.28,46.74,56.32,183,95.17,183,95.17M116.87,262.13c-32.67,47.3-6.2,104.74,30.4,135.71,37.72,31.91,157.68,80,157.68,80M109,224.4c-31.53,33.79-53.48,116,7.34,180.2C157.41,448,265,487.38,265,487.38M105.58,191.74C14.36,279,58.85,386.58,106.71,430.5c37.63,34.53,108.12,73.21,108.12,73.21M423.2,34.07s-57.44,105.87-180.2,94S83.79,177.91,56.61,208.64c-34.37,38.85-44,129.51-1.71,197.09,31,49.63,80.53,82.78,80.53,82.78m20.85-433C80.83,61.66,11,145,11,145M334.23,58.85S298.75,78,212,75.74,62.24,128.67,62.24,128.67m52.94-5.07s63.07-32.09,126.14-21.39S346.06,79.12,346.06,79.12M228.93,49.84c-7.89-.57-33.23.56-33.23.56m94-33.22s17.46-2.26,30.41-6.76M279,47s30.41-5.63,45-11.26m36.61,94.6s58.56-29.84,68.7-54.62m-37.73,68.14s57.44-33.79,73.77-72.65M518.93,145c-13.51-6.75-73.77-10.13-73.77-10.13m98-9c-15.21-8.45-73.77-14.64-73.77-14.64m80-11.83c-3.38-1.13-33.22-7.32-33.22-7.32" />
        <path class="cls-2" d="M484.59,381.42a24.33,24.33,0,0,1-24.35,24.35h-23.6a7.76,7.76,0,0,1-8-7.86V314a7.88,7.88,0,0,1,8-8h23.6a24.34,24.34,0,0,1,24.35,24.36Zm-15.88-51.13a8.1,8.1,0,0,0-8.47-8.48H444.51v68.08h15.73a8.1,8.1,0,0,0,8.47-8.47Z" />
        <path class="cls-2" d="M556.9,405.77a7.92,7.92,0,0,1-8-7.71l-5.59-25.72H530.43l-5.9,27.08a7.93,7.93,0,0,1-7.72,6.35,8.07,8.07,0,0,1-8-8,5.2,5.2,0,0,1,.15-1.66l20-84a8,8,0,0,1,7.86-6.2,7.81,7.81,0,0,1,7.72,6.2l20.12,84a5.2,5.2,0,0,1,.15,1.66A7.94,7.94,0,0,1,556.9,405.77Zm-17.24-49.31L536.78,343l-3,13.47Z" />
        <path class="cls-2" d="M644.94,314.7l-7.11,83.81a8,8,0,0,1-15.88,0l-5-24.35-5.15,24.35a8,8,0,0,1-15.88-.15l-6.81-82.75A5.2,5.2,0,0,1,589,314a7.95,7.95,0,0,1,15.88-.61l2.42,29.5,2-9.38a8.1,8.1,0,0,1,7.87-6.35,7.92,7.92,0,0,1,7.71,6.35l1.82,8.78,2.42-29.05a8,8,0,0,1,15.88.76Z" />
    </g>
</svg>