<svg xmlns="http://www.w3.org/2000/svg" viewBox="0 0 56 56">
    <defs>
        <style>.cls-1{fill:@font-color-primary}</style>
    </defs>
    <g id="Layer_4" data-name="Layer 4">
        <path  class="cls-1" d="M29,20.61,17.38,3.18a2.55,2.55,0,0,0-4.24,0L1.48,20.61a1.41,1.41,0,0,0,1.18,2.2H8.48V56H22V22.81h5.82A1.41,1.41,0,0,0,29,20.61Z" />
        <path  class="cls-1" d="M53.34,33.19H47.52V0H34V33.19H28.14A1.41,1.41,0,0,0,27,35.39L38.62,52.82a2.55,2.55,0,0,0,4.24,0L54.52,35.39A1.41,1.41,0,0,0,53.34,33.19Z" />
    </g>
</svg>