<svg id="Layer_1" data-name="Layer 1" xmlns="http://www.w3.org/2000/svg" xmlns:xlink="http://www.w3.org/1999/xlink" viewBox="0 0 630 300"><defs><linearGradient id="linear-gradient" x1="315" y1="300" x2="315" y2="0.51" gradientUnits="userSpaceOnUse"><stop offset="0" stop-color="#005d85"/><stop offset="1" stop-color="#0068a8"/></linearGradient></defs><rect width="630" height="300" style="fill:url(#linear-gradient)"/><rect x="5" y="4.8" width="620" height="288" style="fill:none;stroke:#002842;stroke-miterlimit:10;stroke-width:2.2277938374010686px"/><path d="M11.77,280.85a4.5,4.5,0,1,0,5.94,2.29A4.5,4.5,0,0,0,11.77,280.85Zm2.49,4.37L15.48,288l-.92.41-1.22-2.75-2.74,1.22-.4-.91,2.74-1.22L11.72,282l.91-.41,1.22,2.74,2.74-1.21L17,284Z" style="fill:#002842"/><path d="M11.67,8.39a4.5,4.5,0,1,0,5.94,2.28A4.5,4.5,0,0,0,11.67,8.39Zm2.49,4.36,1.22,2.75-.91.4-1.22-2.74-2.74,1.22-.41-.91,2.74-1.22L11.62,9.51l.92-.41,1.21,2.74,2.75-1.22.4.92Z" style="fill:#002842"/><path d="M617.91,280a4.5,4.5,0,1,0,3.64,5.22A4.5,4.5,0,0,0,617.91,280Zm-.38,5L617,288l-1-.18.52-2.95-2.95-.53.18-1,3,.53.53-3,1,.18-.53,2.95,3,.53-.18,1Z" style="fill:#002842"/><path d="M612.5,14.61a4.5,4.5,0,1,0,1.71-6.13A4.51,4.51,0,0,0,612.5,14.61Zm4.11-2.89,2.61-1.47.49.87-2.61,1.47,1.47,2.62-.87.49-1.47-2.61-2.61,1.47-.49-.87,2.61-1.48L614.27,9.6l.87-.49Z" style="fill:#002842"/></svg>