<svg id="Layer_1" data-name="Layer 1" xmlns="http://www.w3.org/2000/svg" viewBox="0 0 16 16">
    <defs>
        <style>.cls-1{fill:@font-color-primary}</style>
    </defs>
    <path class="cls-1" d="M8,4H3.25A2.25,2.25,0,0,0,1,6.25v3.5A2.25,2.25,0,0,0,3.25,12H8" style="fill:none;stroke:@font-color-primary;stroke-miterlimit:10" />
    <path class="cls-1" d="M6.38,10.64V7l-1,3.6H4.3l-1-3.58v3.58h-1V5.39H3.93l.94,3.85,1-3.85H7.41v5.25Z" />
    <path class="cls-1" d="M7.81,10.64V5.39h2.32a1.7,1.7,0,0,1,.69.13,1.42,1.42,0,0,1,.53.36,1.7,1.7,0,0,1,.34.54,1.85,1.85,0,0,1,.12.67,1.76,1.76,0,0,1-.12.66,1.42,1.42,0,0,1-.34.52,1.38,1.38,0,0,1-.53.34,1.88,1.88,0,0,1-.69.12H8.91v1.91ZM10,7.84a.91.91,0,0,0,.69-.22.76.76,0,0,0,.21-.56.74.74,0,0,0-.21-.55A1,1,0,0,0,10,6.3h-1V7.84Z" />
    <path class="cls-1" d="M13.31,7.56a2,2,0,0,0,.54-.06.87.87,0,0,0,.32-.15.57.57,0,0,0,.16-.23.86.86,0,0,0,0-.28,1,1,0,0,0-.16-.6.71.71,0,0,0-1,0,.89.89,0,0,0-.2.64H12a1.92,1.92,0,0,1,.12-.69,1.63,1.63,0,0,1,.35-.53,1.5,1.5,0,0,1,.54-.34,1.72,1.72,0,0,1,.68-.13,1.91,1.91,0,0,1,.64.11,1.55,1.55,0,0,1,.52.29,1.52,1.52,0,0,1,.35.45,1.41,1.41,0,0,1,.12.59,1.56,1.56,0,0,1-.15.67,1.12,1.12,0,0,1-.46.5,1.31,1.31,0,0,1,.58.48,1.58,1.58,0,0,1,.2.82,1.8,1.8,0,0,1-.14.71,1.47,1.47,0,0,1-.38.54,1.72,1.72,0,0,1-.58.33,2.27,2.27,0,0,1-.75.12A1.58,1.58,0,0,1,12,9.1h1a1,1,0,0,0,.2.67.77.77,0,0,0,.59.21.7.7,0,0,0,.53-.23.87.87,0,0,0,.22-.64.74.74,0,0,0-.27-.65,1.66,1.66,0,0,0-.9-.18Z" />
</svg>